# xmcd CD database file
#
# Track frame offsets:
#	150
#	11279
#	29950
#	45353
#	64455
#	89273
#	103746
#	117044
#
# Disc length: 1955 seconds
#
# Revision: 0
# Processed by: cddbd v1.5.1PL0 Copyright (c) Steve Scherf et al.
# Submitted via: CDex 1.51
#
DISCID=6307a108
DTITLE=SJV-SC - libre
DYEAR=2000
DGENRE=Game
TTITLE0=SKY-Higher
TTITLE1=時は忘却の中に……
TTITLE2=あなたの横顔
TTITLE3=ＳＡＫＵＲＡ
TTITLE4=Sound of Destiny
TTITLE5=Sense
TTITLE6=Action.
TTITLE7=ずっと君を好きだよ
EXTD=YEAR: 2000
EXTT0=
EXTT1=
EXTT2=
EXTT3=
EXTT4=
EXTT5=
EXTT6=
EXTT7=
PLAYORDER=
